# xmcd
#
# Track frame offsets: 
#        150
#        11742
#        24679
#        40663
#        60899
#        67875
#        83786
#        97965
#        112810
#        129992
#        149241
#        175822
#        190885
#
# Disc length: 2801 seconds
#
# Revision: 0
# Processed by: cddbd v1.5.2PL0 Copyright (c) Steve Scherf et al.
# Submitted via: ExactAudioCopy v0.90b4
#
DISCID=a30aef0d
DTITLE=Grams and Krieger - Two Days
DYEAR=2001
DGENRE=Blues
TTITLE0=Nonie's Blues
TTITLE1=11 months and 29 days
TTITLE2=Blues All Day
TTITLE3=Bacon Fat
TTITLE4=Chingaso
TTITLE5=Bad Luck Fallin'
TTITLE6=Make Up Your Mind
TTITLE7=How Can A Poor Man Stand Such Hard Times and Live
TTITLE8=Never Been To New Orleans
TTITLE9=I Waited Up
TTITLE10=Wild About My Lovin'
TTITLE11=Big Girl
TTITLE12=Green Green Grass of Home
EXTD=
EXTT0=
EXTT1=
EXTT2=
EXTT3=
EXTT4=
EXTT5=
EXTT6=
EXTT7=
EXTT8=
EXTT9=
EXTT10=
EXTT11=
EXTT12=
PLAYORDER=
